<svg width="396" height="42" viewBox="0 0 396 42" fill="none" xmlns="http://www.w3.org/2000/svg">
<path fill-rule="evenodd" clip-rule="evenodd" d="M11.5973 27.7381C11.6683 27.7361 11.7372 27.7701 11.79 27.833C11.8429 27.896 11.8757 27.9833 11.8818 28.0771C11.8818 28.1781 11.8516 28.2749 11.7978 28.3463C11.744 28.4176 11.671 28.4577 11.5949 28.4577C11.5188 28.4577 11.4458 28.4176 11.3921 28.3463C11.3383 28.2749 11.308 28.1781 11.308 28.0771C11.3141 27.9833 11.3469 27.896 11.3998 27.833C11.4526 27.7701 11.5215 27.7361 11.5925 27.7381H11.5973Z" fill="black"/>
<path fill-rule="evenodd" clip-rule="evenodd" d="M37.4958 27.7381C37.5621 27.7441 37.6245 27.7817 37.6715 27.8441C37.7185 27.9064 37.7468 27.9892 37.7513 28.0771C37.7528 28.1713 37.7273 28.2628 37.6798 28.3328C37.6323 28.4029 37.5665 28.4464 37.4958 28.4545C37.4204 28.4545 37.348 28.4148 37.2947 28.344C37.2413 28.2732 37.2114 28.1772 37.2114 28.0771C37.2175 27.9833 37.2502 27.896 37.3031 27.833C37.3559 27.7701 37.4248 27.7361 37.4958 27.7381V27.7381Z" fill="black"/>
<path d="M9.68953 2.22187L12.0115 9.36057H13.2111L11.0818 2.81036L25.534 5.00442L39.9863 7.24326L38.8108 9.35417H40.2127L41.4845 7.07056L42.0578 6.0151L41.0943 5.88717L25.6785 3.5204L10.2628 1.15362L9.29932 0.987305L9.68953 2.22187ZM26.6179 31.2756L22.6725 38.312L20.3794 31.2756H19.1365L22.0269 40.103L22.4075 41.3312L22.9904 40.231L28.015 31.2756H26.6179Z" fill="black"/>
<path d="M35.7132 26.7979H36.4455V26.2925H35.2989V29.8811H36.4455V29.3565H35.7132V28.3331H36.3347V27.8277H35.7325L35.7132 26.7979ZM34.3788 26.7979C34.5378 26.7979 34.6004 26.9258 34.6004 27.1753V27.5143C34.6004 27.8085 34.5041 27.8917 34.3451 27.8917H34.1861V26.7979H34.3788ZM35.0773 29.8811C35.0387 29.746 35.0175 29.6033 35.0147 29.4589V28.9088C35.0147 28.5314 34.9521 28.2307 34.7305 28.1092C34.9232 28.026 35.0147 27.7702 35.0147 27.3928V27.1369C35.0147 26.5484 34.822 26.2925 34.4125 26.2925H33.7429V29.8811H34.1861V28.4034H34.3114C34.5041 28.4034 34.5956 28.5314 34.5956 28.8704V29.4589C34.5999 29.6004 34.6112 29.7415 34.6293 29.8811H35.0773ZM32.1869 28.9919C32.1869 29.5804 32.4085 29.9194 32.8228 29.9194C32.915 29.9288 33.0077 29.9109 33.0941 29.8671C33.1805 29.8232 33.2586 29.7544 33.3226 29.6657C33.3866 29.5771 33.4351 29.4706 33.4645 29.3541C33.4938 29.2376 33.5033 29.1139 33.4924 28.9919V27.1305C33.5005 27.011 33.4888 26.8906 33.458 26.7779C33.4272 26.6651 33.3782 26.5627 33.3143 26.4778C33.2504 26.393 33.1733 26.3279 33.0884 26.287C33.0034 26.2461 32.9128 26.2306 32.8228 26.2414C32.7345 26.2317 32.6457 26.2484 32.5629 26.2904C32.4801 26.3323 32.4055 26.3984 32.3445 26.4837C32.2834 26.569 32.2376 26.6714 32.2103 26.7833C32.1831 26.8953 32.1751 27.0139 32.1869 27.1305V28.9919ZM32.6012 27.1305C32.6012 26.8746 32.6975 26.7531 32.8228 26.7531C32.948 26.7531 33.0444 26.881 33.0444 27.1305V29.0495C33.0444 29.3054 32.9818 29.4269 32.8228 29.4269C32.6638 29.4269 32.6012 29.299 32.6012 29.0495V27.1305ZM30.7224 26.7915H31.1656V29.8747H31.5799V26.7979H32.0616V26.2925H30.7272L30.7224 26.7915ZM29.3542 27.1305C29.3542 28.1476 30.1828 28.3139 30.1828 29.0495C30.1828 29.3054 30.1202 29.4269 29.9612 29.4269C29.8023 29.4269 29.7396 29.299 29.7396 29.0495V28.7936H29.3591V29.0047C29.3591 29.5932 29.5518 29.9322 29.995 29.9322C30.4382 29.9322 30.5971 29.5932 30.5971 29.0047C30.5971 27.9876 29.7685 27.8661 29.7685 27.1433C29.7685 26.8874 29.8649 26.7659 29.9901 26.7659C30.1154 26.7659 30.2117 26.8938 30.2117 27.1433V27.2712H30.5923V27.1433C30.5923 26.5932 30.3996 26.2541 29.9901 26.2541C29.9018 26.2445 29.813 26.2612 29.7302 26.3032C29.6475 26.3451 29.5728 26.4112 29.5118 26.4965C29.4508 26.5818 29.405 26.6842 29.3777 26.7961C29.3504 26.9081 29.3424 27.0267 29.3542 27.1433V27.1305ZM27.3165 26.7915H27.7597V29.8747H28.174V26.7979H28.6268V26.2925H27.3213L27.3165 26.7915ZM26.5842 26.7915C26.7095 26.7915 26.8058 26.8746 26.8058 27.1305V27.6806C26.8058 27.9365 26.7095 28.0196 26.5842 28.0196H26.3915V26.7979L26.5842 26.7915ZM26.5842 26.2861H25.9483V29.8747H26.3915V28.525H26.5842C26.6725 28.5346 26.7613 28.5179 26.8441 28.4759C26.9269 28.434 27.0015 28.3679 27.0626 28.2826C27.1236 28.1973 27.1694 28.0949 27.1967 27.983C27.2239 27.8711 27.232 27.7524 27.2201 27.6358V27.1689C27.2339 27.0518 27.2272 26.9322 27.2006 26.8191C27.1741 26.706 27.1283 26.6025 27.0668 26.5166C27.0054 26.4307 26.93 26.3647 26.8463 26.3236C26.7626 26.2826 26.673 26.2676 26.5842 26.2797V26.2861ZM24.9608 26.7915H25.693V26.2861H24.5465V29.8747H25.693V29.3565H24.9608V28.3331H25.534V27.8277H24.9608V26.7915ZM23.8768 28.525V29.0303C23.8768 29.2862 23.7805 29.4077 23.6552 29.4077C23.53 29.4077 23.4336 29.2798 23.4336 29.0303V27.1113C23.4336 26.8554 23.53 26.7339 23.6552 26.7339C23.7805 26.7339 23.8768 26.8618 23.8768 27.1113V27.4887H24.2574V27.1113C24.2574 26.5612 24.0647 26.2222 23.6552 26.2222C23.2457 26.2222 23.0193 26.5612 23.0193 27.1113V28.9727C23.0193 29.5612 23.212 29.9003 23.6552 29.9003C24.0984 29.9003 24.2574 29.5612 24.2574 28.9727V28.5058L23.8768 28.525ZM22.316 29.8747H22.7303V26.2861H22.3642V28.4418L21.9499 26.2861H21.4007V29.8747H21.7812V27.2584L22.316 29.8747ZM19.835 28.9855C19.835 29.574 20.0566 29.913 20.4709 29.913C20.8852 29.913 21.1068 29.574 21.1068 28.9855V27.1241C21.1068 26.9002 21.0398 26.6854 20.9206 26.527C20.8013 26.3687 20.6396 26.2797 20.4709 26.2797C20.3023 26.2797 20.1405 26.3687 20.0213 26.527C19.902 26.6854 19.835 26.9002 19.835 27.1241V28.9855ZM20.2493 27.1241C20.2493 26.8682 20.3457 26.7467 20.4709 26.7467C20.5962 26.7467 20.6925 26.8746 20.6925 27.1241V29.0431C20.6925 29.299 20.5962 29.4205 20.4709 29.4205C20.3457 29.4205 20.2493 29.2926 20.2493 29.0431V27.1241ZM19.1991 28.5186V29.0239C19.1991 29.2798 19.1365 29.4013 18.9775 29.4013C18.8185 29.4013 18.7559 29.2734 18.7559 29.0239V27.1049C18.7559 26.849 18.8522 26.7275 18.9775 26.7275C19.1028 26.7275 19.1991 26.8554 19.1991 27.1049V27.4823H19.6134V27.1049C19.6134 26.994 19.597 26.8842 19.565 26.7818C19.533 26.6793 19.4862 26.5863 19.4272 26.5078C19.3681 26.4294 19.298 26.3673 19.2209 26.3248C19.1437 26.2824 19.061 26.2605 18.9775 26.2605C18.894 26.2605 18.8113 26.2824 18.7342 26.3248C18.657 26.3673 18.5869 26.4294 18.5279 26.5078C18.4688 26.5863 18.422 26.6793 18.39 26.7818C18.3581 26.8842 18.3416 26.994 18.3416 27.1049V28.9663C18.3416 29.5548 18.5632 29.8939 18.9775 29.8939C19.3918 29.8939 19.6134 29.5548 19.6134 28.9663V28.4994L19.1991 28.5186ZM17.0361 29.8683H17.4793V26.2797H17.0987V28.4354L16.6555 26.2797H16.1015V29.8683H16.4821V27.252L17.0361 29.8683ZM15.138 26.7979H15.8703V26.2925H14.7237V29.8811H15.8703V29.3565H15.138V28.3331H15.7402V27.8277H15.138V26.7979ZM13.2111 26.2925H12.6089V29.8811H12.9895V27.3224L13.3074 29.8811H13.6928L14.0107 27.3224V29.8811H14.3913V26.2925H13.8181L13.5338 28.8512L13.2111 26.2925Z" fill="black"/>
<path d="M41.4412 11.0556H43.5079L48.5661 24.6997H46.4513L41.4412 11.0556ZM43.4452 24.6165L41.4749 24.6997V12.4436L43.4452 17.5994V24.6165ZM46.5332 11.1835L48.5372 11.0556V23.3052L46.5332 18.1879V11.1835ZM37.91 11.0556L35.5013 24.6997H33.531L35.853 11.0556H37.91ZM37.6258 15.6612L38.358 11.0556H38.8976L41.1521 24.6997H39.1818L38.6085 21.8276H36.4792L36.8309 19.7167H38.3243L37.6258 15.6612ZM25.7894 18.2198V24.6805H23.9106V11.0939L25.7894 18.2198ZM29.3543 24.3031H27.7019L24.3634 11.0364H26.2181L28.5401 19.8254L30.8621 11.0364H32.6735L29.3543 24.3031ZM33.0781 11.0364V24.6805H31.2668V18.8659L31.2331 18.3158L33.0781 11.0364ZM18.7608 24.6805C17.0121 24.6805 16.1497 23.7082 16.1497 21.7252V11.0556H18.1201V21.5333C18.1201 22.1218 18.4717 22.4225 19.204 22.4225V24.7061L18.7608 24.6805ZM19.7243 22.3969C20.4565 22.3521 20.8082 22.0579 20.8082 21.5077V11.0556H22.7785V21.7444C22.7785 23.7274 21.921 24.6997 20.1675 24.6997H19.7243V22.3969ZM10.0894 24.6805H8.08536V11.0556H10.0894V24.6805ZM10.6627 11.0364H12.1561C13.9048 11.0364 14.7671 12.0535 14.7671 14.0364V16.5631C14.7671 18.0855 14.2854 19.0578 13.3219 19.5184L15.2007 24.7125H13.0714L11.4816 19.5184H10.6868V17.4075H11.8333C12.5029 17.4075 12.7968 17.1516 12.7968 16.5631V14.2411C12.7968 13.691 12.4789 13.3968 11.8333 13.3968H10.6868L10.6627 11.0364ZM0.51239 11.0364H7.13152V13.3648H0.526827L0.51239 11.0364ZM4.93478 24.6805H2.96444V14.094H4.93478V24.6805Z" fill="black"/>
</svg>
