<svg width="18" height="18" viewBox="0 0 18 18" fill="none" xmlns="http://www.w3.org/2000/svg">
<path fill-rule="evenodd" clip-rule="evenodd" d="M15.5631 15.3296C15.8736 15.3296 16.1256 15.5816 16.1256 15.8921C16.1256 16.2026 15.8736 16.4546 15.5631 16.4546H10.1233C9.81283 16.4546 9.56083 16.2026 9.56083 15.8921C9.56083 15.5816 9.81283 15.3296 10.1233 15.3296H15.5631ZM12.0874 2.74017C12.1249 2.76942 13.3797 3.74442 13.3797 3.74442C13.8357 4.01592 14.1919 4.50117 14.3269 5.07567C14.4612 5.64417 14.3637 6.23067 14.0509 6.72642C14.0488 6.72973 14.0468 6.73299 14.0395 6.74271L14.0339 6.75022C13.9831 6.81713 13.7624 7.09617 12.6486 8.49161C12.6383 8.5099 12.6266 8.52703 12.6138 8.54367C12.595 8.5682 12.5746 8.59076 12.5527 8.61129C12.4768 8.70694 12.3965 8.80745 12.3122 8.91312L12.1412 9.12722C11.7885 9.56895 11.3701 10.0928 10.8738 10.714L10.619 11.0329C9.66078 12.2322 8.43355 13.7679 6.86143 15.7347C6.51718 16.1637 6.00118 16.4134 5.44693 16.4202L2.71768 16.4547H2.71018C2.44993 16.4547 2.22343 16.2762 2.16268 16.0219L1.54843 13.4187C1.42168 12.8794 1.54768 12.3229 1.89343 11.8909L8.95843 3.05442C8.96143 3.05142 8.96368 3.04767 8.96668 3.04467C9.74143 2.11842 11.1424 1.98192 12.0874 2.74017ZM8.17072 5.84019L2.77168 12.5937C2.64343 12.7542 2.59618 12.9612 2.64343 13.1599L3.15418 15.3237L5.43343 15.2952C5.65018 15.2929 5.85043 15.1962 5.98318 15.0312C6.66679 14.1759 7.52597 13.1008 8.40932 11.9955L8.72185 11.6044L9.0349 11.2126C9.86334 10.1759 10.6818 9.15149 11.3666 8.29409L8.17072 5.84019ZM9.83293 3.76242L8.87347 4.96119L12.0691 7.41439C12.6841 6.64396 13.0888 6.13654 13.1262 6.08817C13.2492 5.88867 13.2972 5.60667 13.2327 5.33517C13.1667 5.05692 12.9934 4.82067 12.7437 4.66992C12.6904 4.63317 11.4267 3.65217 11.3877 3.62142C10.9122 3.24042 10.2184 3.30642 9.83293 3.76242Z" fill="#88D790"/>
</svg>
